<mxfile host="app.diagrams.net" modified="2024-06-17T08:37:42.348Z" agent="Mozilla/5.0 (Windows NT 10.0; Win64; x64) AppleWebKit/537.36 (KHTML, like Gecko) Chrome/126.0.0.0 Safari/537.36 Edg/126.0.0.0" etag="IRfCMza_XUZmZFzxZtKD" version="24.5.3" type="device">
  <diagram name="第 1 页" id="kIo4NJwo8t4PSByJqMUE">
    <mxGraphModel dx="1002" dy="569" grid="1" gridSize="10" guides="1" tooltips="1" connect="1" arrows="1" fold="1" page="1" pageScale="1" pageWidth="827" pageHeight="1169" math="0" shadow="0">
      <root>
        <mxCell id="0" />
        <mxCell id="1" parent="0" />
        <mxCell id="ekZ-rXbXREu5Y48NC3_S-3" style="edgeStyle=orthogonalEdgeStyle;rounded=0;orthogonalLoop=1;jettySize=auto;html=1;" edge="1" parent="1" source="ekZ-rXbXREu5Y48NC3_S-1" target="ekZ-rXbXREu5Y48NC3_S-4">
          <mxGeometry relative="1" as="geometry">
            <mxPoint x="414" y="170" as="targetPoint" />
          </mxGeometry>
        </mxCell>
        <mxCell id="ekZ-rXbXREu5Y48NC3_S-1" value="Start" style="rounded=0;whiteSpace=wrap;html=1;" vertex="1" parent="1">
          <mxGeometry x="40" y="190" width="120" height="60" as="geometry" />
        </mxCell>
        <mxCell id="ekZ-rXbXREu5Y48NC3_S-6" style="edgeStyle=orthogonalEdgeStyle;rounded=0;orthogonalLoop=1;jettySize=auto;html=1;exitX=1;exitY=0.5;exitDx=0;exitDy=0;entryX=0;entryY=0.5;entryDx=0;entryDy=0;" edge="1" parent="1" source="ekZ-rXbXREu5Y48NC3_S-4" target="ekZ-rXbXREu5Y48NC3_S-5">
          <mxGeometry relative="1" as="geometry" />
        </mxCell>
        <mxCell id="ekZ-rXbXREu5Y48NC3_S-4" value="Fetching text" style="rounded=1;whiteSpace=wrap;html=1;" vertex="1" parent="1">
          <mxGeometry x="210" y="190" width="120" height="60" as="geometry" />
        </mxCell>
        <mxCell id="ekZ-rXbXREu5Y48NC3_S-7" style="edgeStyle=orthogonalEdgeStyle;rounded=0;orthogonalLoop=1;jettySize=auto;html=1;exitX=1;exitY=0.5;exitDx=0;exitDy=0;" edge="1" parent="1" source="ekZ-rXbXREu5Y48NC3_S-5" target="ekZ-rXbXREu5Y48NC3_S-8">
          <mxGeometry relative="1" as="geometry">
            <mxPoint x="520" y="220" as="targetPoint" />
          </mxGeometry>
        </mxCell>
        <mxCell id="ekZ-rXbXREu5Y48NC3_S-5" value="Processing text" style="rounded=1;whiteSpace=wrap;html=1;" vertex="1" parent="1">
          <mxGeometry x="360" y="190" width="120" height="60" as="geometry" />
        </mxCell>
        <mxCell id="ekZ-rXbXREu5Y48NC3_S-9" style="edgeStyle=orthogonalEdgeStyle;rounded=0;orthogonalLoop=1;jettySize=auto;html=1;exitX=0.5;exitY=1;exitDx=0;exitDy=0;" edge="1" parent="1" source="ekZ-rXbXREu5Y48NC3_S-8" target="ekZ-rXbXREu5Y48NC3_S-10">
          <mxGeometry relative="1" as="geometry">
            <mxPoint x="570" y="300" as="targetPoint" />
          </mxGeometry>
        </mxCell>
        <mxCell id="ekZ-rXbXREu5Y48NC3_S-8" value="Building Word Dictionary" style="rounded=1;whiteSpace=wrap;html=1;" vertex="1" parent="1">
          <mxGeometry x="510" y="190" width="120" height="60" as="geometry" />
        </mxCell>
        <mxCell id="ekZ-rXbXREu5Y48NC3_S-12" value="" style="edgeStyle=orthogonalEdgeStyle;rounded=0;orthogonalLoop=1;jettySize=auto;html=1;" edge="1" parent="1" source="ekZ-rXbXREu5Y48NC3_S-10" target="ekZ-rXbXREu5Y48NC3_S-11">
          <mxGeometry relative="1" as="geometry" />
        </mxCell>
        <mxCell id="ekZ-rXbXREu5Y48NC3_S-10" value="Generating Markov Chain" style="rounded=1;whiteSpace=wrap;html=1;" vertex="1" parent="1">
          <mxGeometry x="510" y="290" width="120" height="60" as="geometry" />
        </mxCell>
        <mxCell id="ekZ-rXbXREu5Y48NC3_S-11" value="End" style="whiteSpace=wrap;html=1;rounded=1;" vertex="1" parent="1">
          <mxGeometry x="360" y="290" width="120" height="60" as="geometry" />
        </mxCell>
      </root>
    </mxGraphModel>
  </diagram>
</mxfile>
